<svg width="152" height="463" viewBox="0 0 152 463" fill="none" xmlns="http://www.w3.org/2000/svg">
<path d="M19 49.437H9.5V58.937H19V49.437Z" fill="black"/>
<path d="M9.5 58.937H0V68.437H9.5V58.937Z" fill="black"/>
<path d="M19 58.937H9.5V68.437H19V58.937Z" fill="#D5D5D5"/>
<path d="M28.498 58.937H18.998V68.437H28.498V58.937Z" fill="black"/>
<path d="M37.998 58.937H28.498V68.437H37.998V58.937Z" fill="black"/>
<path d="M47.498 58.937H37.998V68.437H47.498V58.937Z" fill="black"/>
<path d="M9.5 68.4351H0V77.9351H9.5V68.4351Z" fill="black"/>
<path d="M19 68.4351H9.5V77.9351H19V68.4351Z" fill="#D5D5D5"/>
<path d="M28.498 68.4351H18.998V77.9351H28.498V68.4351Z" fill="#EE0404"/>
<path d="M37.998 68.4351H28.498V77.9351H37.998V68.4351Z" fill="#EE0404"/>
<path d="M47.498 68.4351H37.998V77.9351H47.498V68.4351Z" fill="#EE0404"/>
<path d="M56.998 49.9885H47.498V59.4885H56.998V49.9885Z" fill="black"/>
<path d="M66.4963 49.9885H56.9963V59.4885H66.4963V49.9885Z" fill="black"/>
<path d="M75.9963 49.9885H66.4963V59.4885H75.9963V49.9885Z" fill="black"/>
<path d="M85.4963 49.9885H75.9963V59.4885H85.4963V49.9885Z" fill="black"/>
<path d="M9.5 77.9351H0V87.4351H9.5V77.9351Z" fill="black"/>
<path d="M19 77.9351H9.5V87.4351H19V77.9351Z" fill="#979499"/>
<path d="M28.498 77.9351H18.998V87.4351H28.498V77.9351Z" fill="#EE0404"/>
<path d="M37.998 77.9351H28.498V87.4351H37.998V77.9351Z" fill="#EE0404"/>
<path d="M47.498 77.9351H37.998V87.4351H47.498V77.9351Z" fill="#EE0404"/>
<path d="M56.998 59.4885H47.498V68.9885H56.998V59.4885Z" fill="#DD3E3E"/>
<path d="M66.4963 59.4885H56.9963V68.9885H66.4963V59.4885Z" fill="#EE0404"/>
<path d="M75.9963 59.4885H66.4963V68.9885H75.9963V59.4885Z" fill="#EE0404"/>
<path d="M85.4963 59.4885H75.9963V68.9885H85.4963V59.4885Z" fill="#EE0404"/>
<path d="M94.9963 41.0417H85.4963V50.5417H94.9963V41.0417Z" fill="black"/>
<path d="M104.494 41.0417H94.9944V50.5417H104.494V41.0417Z" fill="black"/>
<path d="M113.994 41.0417H104.494V50.5417H113.994V41.0417Z" fill="black"/>
<path d="M123.494 41.0417H113.994V50.5417H123.494V41.0417Z" fill="black"/>
<path d="M132.993 41.0417H123.493V50.5417H132.993V41.0417Z" fill="black"/>
<path d="M142.493 41.0417H132.993V50.5417H142.493V41.0417Z" fill="black"/>
<path d="M9.5 87.4351H0V96.9351H9.5V87.4351Z" fill="black"/>
<path d="M19 87.4351H9.5V96.9351H19V87.4351Z" fill="#EE0404"/>
<path d="M28.498 87.4351H18.998V96.9351H28.498V87.4351Z" fill="#DD3E3E"/>
<path d="M37.998 87.4351H28.498V96.9351H37.998V87.4351Z" fill="#EE0404"/>
<path d="M47.498 87.4351H37.998V96.9351H47.498V87.4351Z" fill="#EE0404"/>
<path d="M56.998 68.9885H47.498V78.4885H56.998V68.9885Z" fill="#DD3E3E"/>
<path d="M66.4963 68.9885H56.9963V78.4885H66.4963V68.9885Z" fill="#EE0404"/>
<path d="M75.9963 68.9885H66.4963V78.4885H75.9963V68.9885Z" fill="#EE0404"/>
<path d="M85.4963 68.9885H75.9963V78.4885H85.4963V68.9885Z" fill="#EE0404"/>
<path d="M94.9963 50.5417H85.4963V60.0417H94.9963V50.5417Z" fill="#DD3E3E"/>
<path d="M104.494 50.5417H94.9944V60.0417H104.494V50.5417Z" fill="#EE0404"/>
<path d="M113.994 50.5417H104.494V60.0417H113.994V50.5417Z" fill="#EE0404"/>
<path d="M123.494 50.5417H113.994V60.0417H123.494V50.5417Z" fill="#EE0404"/>
<path d="M132.993 50.5417H123.493V60.0417H132.993V50.5417Z" fill="#EE0404"/>
<path d="M142.493 50.5417H132.993V60.0417H142.493V50.5417Z" fill="#EE0404"/>
<path d="M151.993 50.5417H142.493V60.0417H151.993V50.5417Z" fill="black"/>
<path d="M9.5 96.9351H0V106.435H9.5V96.9351Z" fill="black"/>
<path d="M19 96.9351H9.5V106.435H19V96.9351Z" fill="#888888"/>
<path d="M28.498 96.9351H18.998V106.435H28.498V96.9351Z" fill="#EE0404"/>
<path d="M37.998 96.9351H28.498V106.435H37.998V96.9351Z" fill="#EE0404"/>
<path d="M47.498 96.9351H37.998V106.435H47.498V96.9351Z" fill="#EE0404"/>
<path d="M56.998 78.4885H47.498V87.9885H56.998V78.4885Z" fill="#DD3E3E"/>
<path d="M66.4963 78.4885H56.9963V87.9885H66.4963V78.4885Z" fill="#EE0404"/>
<path d="M75.9963 78.4885H66.4963V87.9885H75.9963V78.4885Z" fill="#EE0404"/>
<path d="M85.4963 78.4885H75.9963V87.9885H85.4963V78.4885Z" fill="#EE0404"/>
<path d="M94.9963 60.0417H85.4963V69.5417H94.9963V60.0417Z" fill="#DD3E3E"/>
<path d="M104.494 60.0417H94.9944V69.5417H104.494V60.0417Z" fill="#EE0404"/>
<path d="M113.994 60.0417H104.494V69.5417H113.994V60.0417Z" fill="#EE0404"/>
<path d="M123.494 60.0417H113.994V69.5417H123.494V60.0417Z" fill="#EE0404"/>
<path d="M132.993 60.0417H123.493V69.5417H132.993V60.0417Z" fill="#EE0404"/>
<path d="M142.493 60.0417H132.993V69.5417H142.493V60.0417Z" fill="#EE0404"/>
<path d="M151.993 60.0417H142.493V69.5417H151.993V60.0417Z" fill="black"/>
<path d="M9.5 106.433H0V115.933H9.5V106.433Z" fill="black"/>
<path d="M19 106.433H9.5V115.933H19V106.433Z" fill="#979499"/>
<path d="M28.498 106.433H18.998V115.933H28.498V106.433Z" fill="#EE0404"/>
<path d="M37.998 106.433H28.498V115.933H37.998V106.433Z" fill="#EE0404"/>
<path d="M47.498 106.433H37.998V115.933H47.498V106.433Z" fill="#EE0404"/>
<path d="M56.998 87.9866H47.498V97.4866H56.998V87.9866Z" fill="#DD3E3E"/>
<path d="M66.4963 87.9866H56.9963V97.4866H66.4963V87.9866Z" fill="#EE0404"/>
<path d="M75.9963 87.9866H66.4963V97.4866H75.9963V87.9866Z" fill="#EE0404"/>
<path d="M85.4963 87.9866H75.9963V97.4866H85.4963V87.9866Z" fill="#EE0404"/>
<path d="M94.9963 69.54H85.4963V79.04H94.9963V69.54Z" fill="#DD3E3E"/>
<path d="M104.494 69.54H94.9944V79.04H104.494V69.54Z" fill="#EE0404"/>
<path d="M113.994 69.54H104.494V79.04H113.994V69.54Z" fill="#EE0404"/>
<path d="M123.494 69.54H113.994V79.04H123.494V69.54Z" fill="#EE0404"/>
<path d="M132.993 69.54H123.493V79.04H132.993V69.54Z" fill="#EE0404"/>
<path d="M142.493 69.54H132.993V79.04H142.493V69.54Z" fill="#EE0404"/>
<path d="M151.993 69.54H142.493V79.04H151.993V69.54Z" fill="black"/>
<path d="M9.5 115.933H0V125.433H9.5V115.933Z" fill="black"/>
<path d="M19 115.933H9.5V125.433H19V115.933Z" fill="#979499"/>
<path d="M28.498 115.933H18.998V125.433H28.498V115.933Z" fill="white"/>
<path d="M37.998 115.933H28.498V125.433H37.998V115.933Z" fill="white"/>
<path d="M47.498 115.933H37.998V125.433H47.498V115.933Z" fill="white"/>
<path d="M56.998 97.4866H47.498V106.987H56.998V97.4866Z" fill="#DD3E3E"/>
<path d="M66.4963 97.4866H56.9963V106.987H66.4963V97.4866Z" fill="#EE0404"/>
<path d="M75.9963 97.4866H66.4963V106.987H75.9963V97.4866Z" fill="#EE0404"/>
<path d="M85.4963 97.4866H75.9963V106.987H85.4963V97.4866Z" fill="#EE0404"/>
<path d="M94.9963 79.04H85.4963V88.54H94.9963V79.04Z" fill="#DD3E3E"/>
<path d="M104.494 79.04H94.9944V88.54H104.494V79.04Z" fill="#EE0404"/>
<path d="M113.994 79.04H104.494V88.54H113.994V79.04Z" fill="#EE0404"/>
<path d="M123.494 79.04H113.994V88.54H123.494V79.04Z" fill="#EE0404"/>
<path d="M132.993 79.04H123.493V88.54H132.993V79.04Z" fill="#EE0404"/>
<path d="M142.493 79.04H132.993V88.54H142.493V79.04Z" fill="#EE0404"/>
<path d="M151.993 79.04H142.493V88.54H151.993V79.04Z" fill="black"/>
<path d="M9.5 125.433H0V134.933H9.5V125.433Z" fill="black"/>
<path d="M19 125.433H9.5V134.933H19V125.433Z" fill="#979499"/>
<path d="M28.498 125.433H18.998V134.933H28.498V125.433Z" fill="white"/>
<path d="M37.998 125.433H28.498V134.933H37.998V125.433Z" fill="white"/>
<path d="M47.498 125.433H37.998V134.933H47.498V125.433Z" fill="white"/>
<path d="M56.998 106.987H47.498V116.487H56.998V106.987Z" fill="#D5D1D1"/>
<path d="M66.4963 106.987H56.9963V116.487H66.4963V106.987Z" fill="white"/>
<path d="M75.9963 106.987H66.4963V116.487H75.9963V106.987Z" fill="white"/>
<path d="M85.4963 106.987H75.9963V116.487H85.4963V106.987Z" fill="white"/>
<path d="M94.9963 88.54H85.4963V98.04H94.9963V88.54Z" fill="#DD3E3E"/>
<path d="M104.494 88.54H94.9944V98.04H104.494V88.54Z" fill="#EE0404"/>
<path d="M113.994 88.54H104.494V98.04H113.994V88.54Z" fill="#EE0404"/>
<path d="M123.494 88.54H113.994V98.04H123.494V88.54Z" fill="#EE0404"/>
<path d="M132.993 88.54H123.493V98.04H132.993V88.54Z" fill="#EE0404"/>
<path d="M142.493 88.54H132.993V98.04H142.493V88.54Z" fill="#EE0404"/>
<path d="M151.993 88.54H142.493V98.04H151.993V88.54Z" fill="black"/>
<path d="M9.5 134.933H0V144.433H9.5V134.933Z" fill="black"/>
<path d="M19 134.933H9.5V144.433H19V134.933Z" fill="white"/>
<path d="M28.498 134.933H18.998V144.433H28.498V134.933Z" fill="#D5D1D1"/>
<path d="M37.998 134.933H28.498V144.433H37.998V134.933Z" fill="white"/>
<path d="M47.498 134.933H37.998V144.433H47.498V134.933Z" fill="white"/>
<path d="M56.998 116.487H47.498V125.987H56.998V116.487Z" fill="#D5D1D1"/>
<path d="M66.4963 116.487H56.9963V125.987H66.4963V116.487Z" fill="white"/>
<path d="M75.9963 116.487H66.4963V125.987H75.9963V116.487Z" fill="white"/>
<path d="M85.4963 116.487H75.9963V125.987H85.4963V116.487Z" fill="white"/>
<path d="M94.9963 98.04H85.4963V107.54H94.9963V98.04Z" fill="#D5D1D1"/>
<path d="M104.494 98.04H94.9944V107.54H104.494V98.04Z" fill="white"/>
<path d="M113.994 98.04H104.494V107.54H113.994V98.04Z" fill="white"/>
<path d="M123.494 98.04H113.994V107.54H123.494V98.04Z" fill="white"/>
<path d="M132.993 98.04H123.493V107.54H132.993V98.04Z" fill="white"/>
<path d="M142.493 98.04H132.993V107.54H142.493V98.04Z" fill="white"/>
<path d="M151.993 98.04H142.493V107.54H151.993V98.04Z" fill="black"/>
<path d="M9.5 144.431H0V153.931H9.5V144.431Z" fill="black"/>
<path d="M19 144.431H9.5V153.931H19V144.431Z" fill="#888888"/>
<path d="M28.498 144.431H18.998V153.931H28.498V144.431Z" fill="white"/>
<path d="M37.998 144.431H28.498V153.931H37.998V144.431Z" fill="white"/>
<path d="M47.498 144.431H37.998V153.931H47.498V144.431Z" fill="white"/>
<path d="M56.998 125.985H47.498V135.485H56.998V125.985Z" fill="#D5D1D1"/>
<path d="M66.4963 125.985H56.9963V135.485H66.4963V125.985Z" fill="white"/>
<path d="M75.9963 125.985H66.4963V135.485H75.9963V125.985Z" fill="white"/>
<path d="M85.4963 125.985H75.9963V135.485H85.4963V125.985Z" fill="white"/>
<path d="M94.9963 107.538H85.4963V117.038H94.9963V107.538Z" fill="#D5D1D1"/>
<path d="M104.494 107.538H94.9944V117.038H104.494V107.538Z" fill="white"/>
<path d="M113.994 107.538H104.494V117.038H113.994V107.538Z" fill="white"/>
<path d="M123.494 107.538H113.994V117.038H123.494V107.538Z" fill="white"/>
<path d="M132.993 107.538H123.493V117.038H132.993V107.538Z" fill="white"/>
<path d="M142.493 107.538H132.993V117.038H142.493V107.538Z" fill="white"/>
<path d="M151.993 107.538H142.493V117.038H151.993V107.538Z" fill="black"/>
<path d="M9.5 153.931H0V163.431H9.5V153.931Z" fill="black"/>
<path d="M19 153.931H9.5V163.431H19V153.931Z" fill="#888888"/>
<path d="M28.498 153.931H18.998V163.431H28.498V153.931Z" fill="white"/>
<path d="M37.998 153.931H28.498V163.431H37.998V153.931Z" fill="white"/>
<path d="M47.498 153.931H37.998V163.431H47.498V153.931Z" fill="white"/>
<path d="M56.998 135.485H47.498V144.985H56.998V135.485Z" fill="#D5D1D1"/>
<path d="M66.4963 135.485H56.9963V144.985H66.4963V135.485Z" fill="white"/>
<path d="M75.9963 135.485H66.4963V144.985H75.9963V135.485Z" fill="white"/>
<path d="M85.4963 135.485H75.9963V144.985H85.4963V135.485Z" fill="white"/>
<path d="M94.9963 117.038H85.4963V126.538H94.9963V117.038Z" fill="#D5D1D1"/>
<path d="M104.494 117.038H94.9944V126.538H104.494V117.038Z" fill="white"/>
<path d="M113.994 117.038H104.494V126.538H113.994V117.038Z" fill="white"/>
<path d="M123.494 117.038H113.994V126.538H123.494V117.038Z" fill="white"/>
<path d="M132.993 117.038H123.493V126.538H132.993V117.038Z" fill="white"/>
<path d="M142.493 117.038H132.993V126.538H142.493V117.038Z" fill="white"/>
<path d="M151.993 117.038H142.493V126.538H151.993V117.038Z" fill="black"/>
<path d="M9.5 163.431H0V172.931H9.5V163.431Z" fill="black"/>
<path d="M19 163.431H9.5V172.931H19V163.431Z" fill="#888888"/>
<path d="M28.498 163.431H18.998V172.931H28.498V163.431Z" fill="black"/>
<path d="M37.998 163.431H28.498V172.931H37.998V163.431Z" fill="black"/>
<path d="M47.498 163.431H37.998V172.931H47.498V163.431Z" fill="black"/>
<path d="M56.998 144.985H47.498V154.485H56.998V144.985Z" fill="#D5D1D1"/>
<path d="M66.4963 144.985H56.9963V154.485H66.4963V144.985Z" fill="white"/>
<path d="M75.9963 144.985H66.4963V154.485H75.9963V144.985Z" fill="white"/>
<path d="M85.4963 144.985H75.9963V154.485H85.4963V144.985Z" fill="white"/>
<path d="M94.9963 126.538H85.4963V136.038H94.9963V126.538Z" fill="#D5D1D1"/>
<path d="M104.494 126.538H94.9944V136.038H104.494V126.538Z" fill="white"/>
<path d="M113.994 126.538H104.494V136.038H113.994V126.538Z" fill="white"/>
<path d="M123.494 126.538H113.994V136.038H123.494V126.538Z" fill="white"/>
<path d="M132.993 126.538H123.493V136.038H132.993V126.538Z" fill="white"/>
<path d="M142.493 126.538H132.993V136.038H142.493V126.538Z" fill="white"/>
<path d="M151.993 126.538H142.493V136.038H151.993V126.538Z" fill="black"/>
<path d="M9.5 172.929H0V182.429H9.5V172.929Z" fill="black"/>
<path d="M19 172.929H9.5V182.429H19V172.929Z" fill="#979499"/>
<path d="M28.498 172.929H18.998V182.429H28.498V172.929Z" fill="black"/>
<path d="M56.998 154.483H47.498V163.983H56.998V154.483Z" fill="black"/>
<path d="M66.4963 154.483H56.9963V163.983H66.4963V154.483Z" fill="black"/>
<path d="M75.9963 154.483H66.4963V163.983H75.9963V154.483Z" fill="black"/>
<path d="M85.4963 154.483H75.9963V163.983H85.4963V154.483Z" fill="black"/>
<path d="M94.9963 136.036H85.4963V145.536H94.9963V136.036Z" fill="#D5D1D1"/>
<path d="M104.494 136.036H94.9944V145.536H104.494V136.036Z" fill="white"/>
<path d="M113.994 136.036H104.494V145.536H113.994V136.036Z" fill="white"/>
<path d="M123.494 136.036H113.994V145.536H123.494V136.036Z" fill="white"/>
<path d="M132.993 136.036H123.493V145.536H132.993V136.036Z" fill="white"/>
<path d="M142.493 136.036H132.993V145.536H142.493V136.036Z" fill="white"/>
<path d="M151.993 136.036H142.493V145.536H151.993V136.036Z" fill="black"/>
<path d="M9.5 182.429H0V191.929H9.5V182.429Z" fill="black"/>
<path d="M19 182.429H9.5V191.929H19V182.429Z" fill="#979499"/>
<path d="M28.498 182.429H18.998V191.929H28.498V182.429Z" fill="black"/>
<path d="M94.9963 145.536H85.4963V155.036H94.9963V145.536Z" fill="black"/>
<path d="M104.494 145.536H94.9944V155.036H104.494V145.536Z" fill="black"/>
<path d="M113.994 145.536H104.494V155.036H113.994V145.536Z" fill="black"/>
<path d="M123.494 145.536H113.994V155.036H123.494V145.536Z" fill="black"/>
<path d="M132.993 145.536H123.493V155.036H132.993V145.536Z" fill="black"/>
<path d="M142.493 145.536H132.993V155.036H142.493V145.536Z" fill="black"/>
<path d="M9.5 191.929H0V201.429H9.5V191.929Z" fill="black"/>
<path d="M19 191.929H9.5V201.429H19V191.929Z" fill="#979499"/>
<path d="M28.498 191.929H18.998V201.429H28.498V191.929Z" fill="black"/>
<path d="M9.5 201.429H0V210.929H9.5V201.429Z" fill="black"/>
<path d="M19 201.429H9.5V210.929H19V201.429Z" fill="#979499"/>
<path d="M28.498 201.429H18.998V210.929H28.498V201.429Z" fill="black"/>
<path d="M9.5 210.928H0V220.428H9.5V210.928Z" fill="black"/>
<path d="M19 210.928H9.5V220.428H19V210.928Z" fill="#979499"/>
<path d="M28.498 210.928H18.998V220.428H28.498V210.928Z" fill="black"/>
<path d="M9.5 220.428H0V229.928H9.5V220.428Z" fill="black"/>
<path d="M19 220.428H9.5V229.928H19V220.428Z" fill="#D5D5D5"/>
<path d="M28.498 220.428H18.998V229.928H28.498V220.428Z" fill="black"/>
<path d="M9.5 229.928H0V239.428H9.5V229.928Z" fill="black"/>
<path d="M19 229.928H9.5V239.428H19V229.928Z" fill="#D5D5D5"/>
<path d="M28.498 229.928H18.998V239.428H28.498V229.928Z" fill="black"/>
<path d="M9.5 239.426H0V248.926H9.5V239.426Z" fill="black"/>
<path d="M19 239.426H9.5V248.926H19V239.426Z" fill="#D5D5D5"/>
<path d="M28.498 239.426H18.998V248.926H28.498V239.426Z" fill="black"/>
<path d="M9.5 248.926H0V258.426H9.5V248.926Z" fill="black"/>
<path d="M19 248.926H9.5V258.426H19V248.926Z" fill="#D5D5D5"/>
<path d="M28.498 248.926H18.998V258.426H28.498V248.926Z" fill="black"/>
<path d="M9.5 258.426H0V267.926H9.5V258.426Z" fill="black"/>
<path d="M9.5 315.437H0V324.937H9.5V315.437Z" fill="black"/>
<path d="M19.0923 315.437H9.59229V324.937H19.0923V315.437Z" fill="#979499"/>
<path d="M19.0923 258.437H9.59229V267.937H19.0923V258.437Z" fill="#979499"/>
<path d="M28.498 258.426H18.998V267.926H28.498V258.426Z" fill="black"/>
<path d="M28.498 315.437H18.998V324.937H28.498V315.437Z" fill="black"/>
<path d="M9.5 267.926H0V277.426H9.5V267.926Z" fill="black"/>
<path d="M9.5 324.937H0V334.437H9.5V324.937Z" fill="black"/>
<path d="M19.0923 324.937H9.59229V334.437H19.0923V324.937Z" fill="#979499"/>
<path d="M19.0923 267.937H9.59229V277.437H19.0923V267.937Z" fill="#979499"/>
<path d="M28.498 267.926H18.998V277.426H28.498V267.926Z" fill="black"/>
<path d="M28.498 324.937H18.998V334.437H28.498V324.937Z" fill="black"/>
<path d="M9.5 277.424H0V286.924H9.5V277.424Z" fill="black"/>
<path d="M9.5 334.435H0V343.935H9.5V334.435Z" fill="black"/>
<path d="M19.0923 334.435H9.59229V343.935H19.0923V334.435Z" fill="#979499"/>
<path d="M19.0923 277.435H9.59229V286.935H19.0923V277.435Z" fill="#979499"/>
<path d="M28.498 277.424H18.998V286.924H28.498V277.424Z" fill="black"/>
<path d="M28.498 334.435H18.998V343.935H28.498V334.435Z" fill="black"/>
<path d="M9.5 286.924H0V296.424H9.5V286.924Z" fill="black"/>
<path d="M9.5 343.935H0V353.435H9.5V343.935Z" fill="black"/>
<path d="M19.0923 343.935H9.59229V353.435H19.0923V343.935Z" fill="#979499"/>
<path d="M19.0923 286.935H9.59229V296.435H19.0923V286.935Z" fill="#979499"/>
<path d="M28.498 286.924H18.998V296.424H28.498V286.924Z" fill="black"/>
<path d="M28.498 343.935H18.998V353.435H28.498V343.935Z" fill="black"/>
<path d="M9.5 296.424H0V305.924H9.5V296.424Z" fill="black"/>
<path d="M9.5 353.435H0V362.935H9.5V353.435Z" fill="black"/>
<path d="M19.0923 353.435H9.59229V362.935H19.0923V353.435Z" fill="#888888"/>
<path d="M19.0923 296.435H9.59229V305.935H19.0923V296.435Z" fill="#888888"/>
<path d="M28.498 296.424H18.998V305.924H28.498V296.424Z" fill="black"/>
<path d="M28.498 353.435H18.998V362.935H28.498V353.435Z" fill="black"/>
<path d="M9.5 305.924H0V315.424H9.5V305.924Z" fill="black"/>
<path d="M9.5 362.935H0V372.435H9.5V362.935Z" fill="black"/>
<path d="M19.0923 362.935H9.59229V372.435H19.0923V362.935Z" fill="#888888"/>
<path d="M19.0923 305.935H9.59229V315.435H19.0923V305.935Z" fill="#888888"/>
<path d="M28.498 305.924H18.998V315.424H28.498V305.924Z" fill="black"/>
<path d="M28.498 362.935H18.998V372.435H28.498V362.935Z" fill="black"/>
<path d="M19.0923 372.433H9.59229V381.933H19.0923V372.433Z" fill="black"/>
</svg>
